<svg width="200" height="200" viewBox="0 0 200 200" fill="none" xmlns="http://www.w3.org/2000/svg">
<rect width="200" height="200" rx="20" fill="white"/>
<path d="M57.2216 50.9C57.0931 48.0231 57.5412 45.1495 58.5396 42.4483C59.5379 39.7471 61.0663 37.2728 63.0349 35.1709C65.0035 33.069 67.3725 31.382 70.0026 30.2091C72.6327 29.0362 75.4708 28.4011 78.35 28.341C81.2291 28.281 84.0912 28.7974 86.7679 29.8597C89.4446 30.922 91.8819 32.5088 93.9363 34.5268C95.9908 36.5448 97.621 38.9533 98.731 41.6106C99.841 44.2678 100.408 47.1202 100.4 50V143.6M57.2216 50.9C52.9894 51.9882 49.0604 54.0252 45.7321 56.8566C42.4037 59.6881 39.7633 63.2399 38.0109 67.2429C36.2584 71.2459 35.4399 75.5952 35.6172 79.9615C35.7945 84.3277 36.9631 88.5963 39.0344 92.444M57.2216 50.9C57.364 54.3829 58.3472 57.7796 60.0872 60.8M39.0344 92.444C35.3925 95.4027 32.5287 99.2064 30.692 103.524C28.8554 107.842 28.1016 112.543 28.4962 117.219C28.8908 121.895 30.4219 126.403 32.9562 130.352C35.4905 134.301 38.9513 137.571 43.0376 139.878M39.0344 92.444C40.3516 91.3712 41.7611 90.4243 43.2464 89.6M43.0376 139.878C42.533 143.782 42.8341 147.748 43.9224 151.531C45.0106 155.314 46.8629 158.834 49.3648 161.873C51.8668 164.913 54.9652 167.407 58.4688 169.201C61.9724 170.996 65.8067 172.054 69.735 172.309C73.6633 172.564 77.6022 172.011 81.3084 170.684C85.0146 169.357 88.4093 167.284 91.2831 164.593C94.1568 161.903 96.4485 158.652 98.0165 155.041C99.5846 151.43 100.396 147.537 100.4 143.6M43.0376 139.878C47.3595 142.315 52.238 143.602 57.2 143.6M100.4 143.6H143.6C147.419 143.6 151.082 145.117 153.782 147.818C156.483 150.518 158 154.181 158 158V165.2M78.8 107.6C84.8448 105.474 90.1233 101.602 93.9681 96.476C97.8128 91.3497 100.051 85.1984 100.4 78.8M100.4 107.6H129.2M100.4 71.6H158M129.2 71.6V50C129.2 46.1809 130.717 42.5182 133.418 39.8177C136.118 37.1171 139.781 35.6 143.6 35.6M132.8 107.6C132.8 109.588 131.188 111.2 129.2 111.2C127.212 111.2 125.6 109.588 125.6 107.6C125.6 105.612 127.212 104 129.2 104C131.188 104 132.8 105.612 132.8 107.6ZM147.2 35.6C147.2 37.5882 145.588 39.2 143.6 39.2C141.612 39.2 140 37.5882 140 35.6C140 33.6118 141.612 32 143.6 32C145.588 32 147.2 33.6118 147.2 35.6ZM161.6 165.2C161.6 167.188 159.988 168.8 158 168.8C156.012 168.8 154.4 167.188 154.4 165.2C154.4 163.212 156.012 161.6 158 161.6C159.988 161.6 161.6 163.212 161.6 165.2ZM161.6 71.6C161.6 73.5882 159.988 75.2 158 75.2C156.012 75.2 154.4 73.5882 154.4 71.6C154.4 69.6118 156.012 68 158 68C159.988 68 161.6 69.6118 161.6 71.6Z" stroke="black" stroke-width="12" stroke-linecap="round" stroke-linejoin="round"/>
</svg>
